<?xml version="1.0" standalone="no"?>
<!DOCTYPE svg PUBLIC "-//W3C//DTD SVG 20010904//EN"
 "http://www.w3.org/TR/2001/REC-SVG-20010904/DTD/svg10.dtd">
<svg version="1.0" xmlns="http://www.w3.org/2000/svg"
 width="512.000000pt" height="307.000000pt" viewBox="0 0 512.000000 307.000000"
 preserveAspectRatio="xMidYMid meet">

<g transform="translate(0.000000,307.000000) scale(0.100000,-0.100000)"
fill="#000000" stroke="none">
<path d="M1314 3055 c-8 -21 13 -68 42 -96 13 -12 24 -30 24 -39 0 -23 11 -32
26 -20 16 14 7 49 -22 80 -13 14 -29 40 -35 58 -12 34 -26 41 -35 17z"/>
<path d="M1575 3038 c-8 -18 -26 -48 -40 -67 -30 -40 -33 -74 -8 -69 10 2 19
12 22 23 2 11 16 35 32 53 18 20 29 44 29 62 0 39 -16 38 -35 -2z"/>
<path d="M2460 3059 c-120 -24 -183 -84 -281 -268 -272 -511 -298 -564 -314
-636 -31 -131 7 -243 126 -383 39 -46 70 -84 68 -86 -2 -1 -90 -35 -196 -75
-105 -40 -214 -88 -241 -106 l-50 -33 -23 24 c-36 36 -80 41 -112 12 -42 -36
-45 -78 -9 -119 l30 -35 -34 -69 c-48 -97 -64 -184 -64 -350 l-1 -140 -30 50
c-16 28 -51 86 -77 130 -38 65 -52 81 -74 83 -34 4 -83 -40 -73 -66 3 -9 3
-13 -1 -9 -10 9 -57 -70 -49 -83 3 -5 1 -18 -5 -27 -9 -16 -10 -15 -5 5 10 34
-1 26 -30 -23 -14 -25 -23 -50 -19 -57 4 -6 3 -8 -3 -5 -13 8 -96 -140 -87
-154 5 -8 3 -9 -5 -4 -9 5 -12 0 -9 -16 2 -13 9 -23 16 -21 6 1 11 -4 10 -10
-3 -13 143 -24 360 -27 l82 -1 0 -75 0 -75 173 2 172 3 3 346 2 345 30 -4 c23
-3 36 3 61 27 44 44 35 79 -36 151 -44 45 -55 62 -55 88 0 46 23 86 64 111 34
21 36 21 757 19 706 -3 725 -3 751 -23 60 -45 58 -27 58 -569 l0 -496 175 0
c165 0 175 1 175 19 0 23 -16 19 293 73 l249 43 -5 35 c-12 79 -58 336 -62
349 -4 9 -15 11 -38 7 -32 -6 -34 -5 -46 34 -11 36 -15 40 -43 37 -28 -2 -32
2 -45 41 -8 23 -20 42 -26 42 -7 0 -66 -20 -132 -45 -66 -25 -125 -45 -131
-45 -7 0 -13 32 -17 79 -14 179 -122 350 -280 441 -27 15 -129 58 -228 96 -98
38 -179 72 -179 77 0 5 29 43 65 85 36 42 81 108 100 147 19 38 35 62 35 51 0
-16 6 -18 44 -14 92 11 180 76 223 167 62 129 12 296 -112 377 -22 14 -25 24
-25 70 l0 54 -49 0 c-28 0 -52 3 -55 8 -2 4 2 40 11 80 8 41 13 76 10 78 -2 2
-11 2 -20 -2 -30 -11 -65 -164 -37 -164 6 0 10 -85 9 -237 0 -206 -2 -233 -13
-198 -12 39 -143 295 -156 305 -4 3 -49 86 -100 185 -113 219 -148 275 -192
309 -77 58 -186 84 -278 65z m1453 -2034 c4 -8 20 -18 38 -22 29 -8 34 -16 69
-110 36 -98 37 -103 19 -119 -10 -9 -19 -27 -21 -41 -3 -22 -19 -31 -161 -83
-114 -42 -160 -54 -163 -45 -9 22 0 110 11 110 10 -1 35 39 35 56 0 5 -11 11
-25 15 -28 7 -31 14 -12 33 10 11 10 14 0 18 -16 6 -18 119 -3 128 12 7 191
73 201 74 4 1 9 -6 12 -14z m-2773 1 c0 -3 -4 -8 -10 -11 -5 -3 -10 -1 -10 4
0 6 5 11 10 11 6 0 10 -2 10 -4z m46 -76 c24 0 24 -1 24 -100 l0 -100 -45 0
-45 0 0 105 c0 87 3 105 15 105 8 0 16 8 16 18 1 11 3 9 6 -5 3 -16 11 -23 29
-23z m2907 -129 c32 -119 32 -116 7 -141 -11 -11 -20 -28 -20 -38 0 -15 -31
-26 -182 -66 -101 -26 -187 -49 -192 -50 -15 -2 -19 34 -4 39 57 19 404 147
406 150 3 2 -40 130 -63 188 -5 11 -2 17 7 17 10 0 23 -32 41 -99z m49 27 c16
-13 55 -215 44 -226 -9 -8 -11 -3 -40 107 -15 57 -30 110 -33 117 -6 17 8 18
29 2z m-3121 -61 c-10 -9 -11 -8 -5 6 3 10 9 15 12 12 3 -3 0 -11 -7 -18z
m2689 -37 c0 -5 -2 -10 -4 -10 -3 0 -8 5 -11 10 -3 6 -1 10 4 10 6 0 11 -4 11
-10z m-2496 -73 c12 -34 -15 -67 -56 -67 -17 0 -27 -4 -23 -10 3 -5 2 -10 -4
-10 -5 0 -10 8 -10 18 0 9 -4 34 -9 55 -6 21 -8 36 -5 33 9 -8 34 15 28 25 -3
4 11 2 32 -5 26 -9 41 -22 47 -39z m-259 3 c3 -6 -1 -7 -9 -4 -18 7 -21 14 -7
14 6 0 13 -4 16 -10z m3193 -96 c-11 -29 -15 -31 -112 -47 -56 -9 -150 -26
-211 -37 -120 -21 -142 -24 -131 -13 6 7 458 132 463 128 2 -1 -2 -15 -9 -31z
m-3048 16 c0 -5 -5 -10 -11 -10 -5 0 -7 5 -4 10 3 6 8 10 11 10 2 0 4 -4 4
-10z"/>
<path d="M1127 2934 c-10 -10 -9 -74 3 -113 12 -44 55 -88 92 -96 23 -5 28
-12 26 -28 -3 -21 -8 -22 -95 -22 -95 0 -109 -4 -100 -30 5 -12 25 -15 101
-15 82 0 95 -2 98 -17 2 -13 -10 -24 -45 -40 -38 -18 -52 -31 -67 -65 -23 -51
-26 -121 -5 -138 24 -20 35 -2 35 58 0 47 4 60 27 84 36 38 71 36 109 -3 84
-90 223 -91 309 -4 36 37 43 41 71 33 49 -12 68 -42 74 -112 4 -45 9 -61 20
-61 11 0 16 15 18 60 4 75 -22 120 -85 150 -27 12 -43 26 -43 37 0 16 11 18
100 18 83 0 102 3 107 16 8 23 -13 33 -58 27 -21 -3 -63 -2 -93 1 -46 6 -56
11 -56 27 0 11 7 19 16 19 30 0 86 43 100 76 8 18 14 58 14 89 0 48 -2 55 -20
55 -18 0 -20 -7 -20 -56 0 -51 -3 -59 -35 -91 -32 -32 -39 -35 -78 -30 -23 4
-109 9 -190 13 -112 5 -155 3 -172 -6 -19 -10 -30 -10 -54 0 -45 18 -55 36
-61 104 -4 44 -9 62 -20 64 -9 1 -19 0 -23 -4z"/>
<path d="M3936 2320 c-41 -13 -72 -45 -127 -130 l-48 -74 27 -18 c38 -25 45
-23 37 12 -8 35 9 63 34 55 10 -3 22 6 33 24 36 64 107 82 172 42 40 -25 61
-69 52 -113 -3 -17 -25 -62 -48 -100 l-43 -68 -156 0 c-214 0 -204 9 -204
-187 0 -123 3 -154 18 -184 79 -158 272 -193 394 -72 58 59 67 91 67 254 1
127 -1 149 -17 167 -17 19 -17 21 19 80 59 101 64 172 13 236 -47 60 -156 97
-223 76z m1 -722 c-3 -8 -6 -5 -6 6 -1 11 2 17 5 13 3 -3 4 -12 1 -19z"/>
<path d="M1092 1988 c-17 -6 -47 -25 -65 -42 -18 -17 -31 -30 -28 -28 2 1 13
-5 23 -15 17 -15 17 -17 1 -37 -10 -12 -2 -7 17 10 51 46 78 57 142 58 47 1
64 -4 100 -29 51 -36 88 -102 88 -158 0 -24 -11 -59 -27 -89 l-27 -49 22 -21
c27 -27 42 -16 72 55 75 172 -45 359 -227 356 -32 -1 -73 -6 -91 -11z"/>
<path d="M981 1744 c0 -11 3 -14 6 -6 3 7 2 16 -1 19 -3 4 -6 -2 -5 -13z"/>
<path d="M2505 1090 c-72 -16 -115 -66 -115 -135 0 -76 62 -135 142 -135 120
0 177 150 90 233 -34 33 -76 46 -117 37z"/>
<path d="M1898 665 c-28 -16 -39 -57 -18 -70 6 -3 10 -1 10 6 0 18 32 38 63
39 20 0 50 -21 121 -85 l93 -84 43 50 c39 46 47 79 20 79 -6 0 -8 -5 -4 -12 4
-7 3 -8 -5 -4 -7 5 -20 -3 -32 -18 -11 -14 -25 -26 -31 -26 -5 0 -43 30 -84
66 -81 73 -125 88 -176 59z"/>
<path d="M2440 667 c-49 -16 -133 -102 -148 -153 -16 -53 -14 -249 2 -294 12
-32 16 -35 52 -35 56 -1 64 -9 64 -65 0 -40 4 -51 21 -60 16 -9 24 -8 38 4 16
15 19 15 31 1 16 -19 34 -19 54 1 9 8 16 11 16 5 0 -16 40 -24 55 -11 9 7 15
30 15 54 0 58 11 70 62 71 60 0 67 20 69 181 1 122 0 133 -25 181 -55 109
-182 159 -306 120z m22 -274 c37 -33 17 -96 -37 -119 -45 -18 -51 -18 -75 6
-45 45 -8 130 57 130 20 0 45 -7 55 -17z m237 -9 c39 -50 20 -116 -33 -116
-35 0 -78 31 -90 65 -24 68 77 109 123 51z m-133 -109 c20 -49 7 -72 -42 -71
-45 1 -58 27 -38 74 10 24 19 32 39 32 20 0 29 -8 41 -35z"/>
<path d="M3045 661 c-16 -10 -57 -44 -90 -74 l-60 -56 -31 36 c-21 25 -36 34
-47 30 -26 -10 -20 -28 28 -80 l44 -47 33 33 c139 138 184 161 229 116 23 -23
44 -14 33 15 -8 21 -55 46 -86 46 -13 0 -36 -9 -53 -19z"/>
<path d="M2060 526 c0 -2 8 -10 18 -17 15 -13 16 -12 3 4 -13 16 -21 21 -21
13z"/>
<path d="M2930 426 c0 -2 8 -10 18 -17 15 -13 16 -12 3 4 -13 16 -21 21 -21
13z"/>
</g>
</svg>
